<?xml version="1.0" encoding="UTF-8"?><svg id="Ebene_1" xmlns="http://www.w3.org/2000/svg" xmlns:xlink="http://www.w3.org/1999/xlink" viewBox="0 0 1088.3 377.57"><defs><style>.cls-1{fill:none;}.cls-2{clip-path:url(#clippath);}.cls-3{fill:#ede6dc;}</style><clipPath id="clippath"><rect class="cls-1" width="1088.3" height="377.57"/></clipPath></defs><g class="cls-2"><path class="cls-3" d="M1008.73,226.43c-.29,.05-.57,.09-.86,.13-316.77,49.79-633.54,99.58-950.31,149.37-18.17,2.86-40.72,3.76-50.83-12.7-4.68-7.62-5.23-17.15-5.52-26.18C-1.14,262.14-2.72,165.24,23.23,94.69c23.65-64.29,109.15-50.29,160.63-30,49.5,19.5,97.03,48.95,149.49,52.98,14.72,1.13,30.36-.09,42.44-8.83,21.12-15.29,23.89-46.86,37.66-69.69C435.37,2.85,483.33-6.41,523.26,4.01c39.93,10.42,74.66,36.1,110.61,57.54,35.95,21.44,76.77,39.41,117.05,32.13,55.5-10.03,95.02-64.92,149.77-78.62,36.86-9.22,76.32,1.71,110.11,20.7,30.57,17.19,58.93,42.48,71.54,76.56,12.61,34.08,5.32,77.66-23.05,97.75-14.73,10.43-32.93,13.57-50.56,16.35"/></g></svg>