<svg xmlns="http://www.w3.org/2000/svg" viewBox="0 0 393.91 486.07"><defs><style>.cls-1{fill:#fff;}</style></defs><g id="LOGO_P_NEG" data-name="LOGO P NEG"><g id="Signet"><path class="cls-1" d="M238.09,128.65c19.93,0,32.23,13.58,32.23,35v62.55H237V171.7c0-8.06-3.4-13.78-10.82-13.78-5.72,0-10.6,3.6-12.29,10.17v58.1H180.84V171.7c0-8.06-3.39-13.78-10.82-13.78-5.72,0-10.81,3.6-12.29,10.17v58.1H124.44V130.78h33.29v7.84c4.87-5.94,14-10,24.59-10,12.09,0,20.57,4.67,26.29,11.45C214.34,134.17,224.09,128.65,238.09,128.65Z"/><path class="cls-1" d="M298.49,95H258.62V68h68.05V288.07H171.2v-27H298.49Z"/><path class="cls-1" d="M96.19,261.08h39.88v27H68V68H223.48V95H96.19Z"/></g><g id="Schrift-2" data-name="Schrift"><g id="ACADEMY"><path class="cls-1" d="M80.68,398.47,88,417.69h-5.1L81.53,414h-7l-1.35,3.73h-5l7.32-19.22Zm-4.6,11.36h4l-2-5.41Z"/><path class="cls-1" d="M117.52,398.16c4.79,0,7.61,2.85,8.3,6.76h-5a3.25,3.25,0,0,0-3.29-2.35c-2.66,0-4.16,2.35-4.16,5.51s1.5,5.51,4.16,5.51a3.24,3.24,0,0,0,3.29-2.38h5c-.69,3.94-3.51,6.79-8.3,6.79-5.38,0-9.23-4.1-9.23-9.92S112.14,398.16,117.52,398.16Z"/><path class="cls-1" d="M158.84,398.47l7.32,19.22h-5.1L159.68,414h-7l-1.34,3.73h-5l7.32-19.22Zm-4.6,11.36h3.94l-2-5.41Z"/><path class="cls-1" d="M188.26,398.47h7.26c6,0,9.7,3.76,9.7,9.61s-3.66,9.61-9.7,9.61h-7.26Zm7,14.87c3.19,0,5-2,5-5.26s-1.79-5.29-5-5.29H193.2v10.55Z"/><path class="cls-1" d="M241.5,398.47v4.32h-8.8v3h8.05V410H232.7v3.32h8.8v4.35H227.76V398.47Z"/><path class="cls-1" d="M273.14,417.69l-4-11.43v11.43h-4.7V398.47h6.14l4.22,12,4.2-12h6.1v19.22h-4.73V406.26l-4,11.43Z"/><path class="cls-1" d="M320.69,398.47H326l-7,12.4v6.82h-5v-6.82l-6.83-12.4h5.45l4,7.51Z"/></g><g id="mischok"><path class="cls-1" d="M109.09,348.19c7.2,0,11.64,4.9,11.64,12.63v22.6h-12V363.73c0-2.91-1.23-5-3.91-5a4.53,4.53,0,0,0-4.44,3.67v21h-12V363.73c0-2.91-1.22-5-3.9-5a4.46,4.46,0,0,0-4.44,3.67v21H68V349h12v2.84c1.76-2.15,5.05-3.6,8.88-3.6a11.83,11.83,0,0,1,9.5,4.13A14.46,14.46,0,0,1,109.09,348.19Z"/><path class="cls-1" d="M132.53,346c-3.68,0-6.82-2.52-6.82-6.43s3.14-6.51,6.82-6.51,6.82,2.53,6.82,6.51S136.2,346,132.53,346Zm6,37.38h-12V349h12Z"/><path class="cls-1" d="M154.16,372.77a4.21,4.21,0,0,0,4.37,3c2,0,3.52-.77,3.52-2.38,0-1.3-1-1.76-2.68-2.14l-6.74-1.38c-5.74-1.22-9.49-4-9.49-10,0-7.35,6.58-11.64,14.7-11.64,9.42,0,14.55,4.36,15.62,11.18h-11.1c-.38-1.46-1.46-2.76-4.21-2.76-1.77,0-3.22.77-3.22,2.3,0,1.07.77,1.61,2.37,1.91l6.82,1.61c6.28,1.46,9.65,4.75,9.65,10.34,0,7.35-6.66,11.41-15.09,11.41-8.8,0-15.16-4-16.23-11.41Z"/><path class="cls-1" d="M193.58,348.19c9.27,0,15,5.51,16,13.55H198a4.16,4.16,0,0,0-4.37-3.6c-3.37,0-5.51,3.14-5.51,8.05s2.14,8,5.51,8a4.09,4.09,0,0,0,4.37-3.52h11.64c-1,8-6.74,13.55-16,13.55-10.34,0-17.38-7.35-17.38-18S183.24,348.19,193.58,348.19Z"/><path class="cls-1" d="M212.86,333.64h12v18.3a12.53,12.53,0,0,1,9.27-3.75c7.66,0,12.18,5,12.18,12.63v22.6h-12V363.73c0-2.83-1.45-4.9-4.52-4.9a5,5,0,0,0-5,3.76v20.83h-12Z"/><path class="cls-1" d="M267.91,384.18c-10.42,0-17.61-7.35-17.61-18s7.19-18,17.61-18,17.62,7.35,17.62,18S278.4,384.18,267.91,384.18Zm0-26.11c-3.68,0-5.74,3.37-5.74,8.12s2.06,8,5.74,8,5.82-3.3,5.82-8S271.66,358.07,267.91,358.07Z"/><path class="cls-1" d="M303.68,370.63l-2.29,2.68v10.11h-12V333.64h12V360L311,349h14.47l-13.09,14.33,13.48,20.14H312.11Z"/></g></g></g></svg>