<?xml version="1.0" encoding="utf-8"?>
<!-- Generator: Adobe Illustrator 26.3.1, SVG Export Plug-In . SVG Version: 6.00 Build 0)  -->
<svg version="1.1" id="Ebene_1" xmlns="http://www.w3.org/2000/svg" xmlns:xlink="http://www.w3.org/1999/xlink" x="0px" y="0px"
	 viewBox="0 0 393.9 486.1" style="enable-background:new 0 0 393.9 486.1;" xml:space="preserve">
<style type="text/css">
	.st0{fill:#1A222A;}
</style>
<g id="LOGO_P_POS">
	<g id="Signet">
		<path class="st0" d="M238.1,128.6c19.9,0,32.2,13.6,32.2,35v62.6H237v-54.5c0-8.1-3.4-13.8-10.8-13.8c-5.7,0-10.6,3.6-12.3,10.2
			v58.1h-33.1v-54.5c0-8.1-3.4-13.8-10.8-13.8c-5.7,0-10.8,3.6-12.3,10.2v58.1h-33.3v-95.4h33.3v7.8c4.9-5.9,14-10,24.6-10
			c12.1,0,20.6,4.7,26.3,11.4C214.3,134.2,224.1,128.6,238.1,128.6z"/>
		<path class="st0" d="M298.5,95h-39.9V68h68v220.1H171.2v-27h127.3V95z"/>
		<path class="st0" d="M96.2,261.1h39.9v27H68V68h155.5v27H96.2V261.1z"/>
	</g>
	<g id="Schrift">
		<g id="ACADEMY">
			<path class="st0" d="M80.4,398.5l7.3,19.2h-5.1l-1.4-3.7h-7l-1.3,3.7h-5l7.3-19.2H80.4z M75.8,409.8h3.9l-2-5.4L75.8,409.8z"/>
			<path class="st0" d="M117.2,398.2c4.8,0,7.6,2.9,8.3,6.8h-5c-0.4-1.5-1.8-2.4-3.3-2.4c-2.7,0-4.2,2.4-4.2,5.5s1.5,5.5,4.2,5.5
				c1.5,0.1,2.9-0.9,3.3-2.4h5c-0.7,3.9-3.5,6.8-8.3,6.8c-5.4,0-9.2-4.1-9.2-9.9S111.8,398.2,117.2,398.2z"/>
			<path class="st0" d="M158.5,398.5l7.3,19.2h-5.1l-1.4-3.7h-7l-1.4,3.7h-5l7.3-19.2H158.5z M153.9,409.8h3.9l-2-5.4L153.9,409.8z"
				/>
			<path class="st0" d="M188,398.5h7.3c6,0,9.7,3.8,9.7,9.6s-3.7,9.6-9.7,9.6H188V398.5z M195,413.3c3.2,0,5-2,5-5.3s-1.8-5.3-5-5.3
				h-2.1v10.5L195,413.3z"/>
			<path class="st0" d="M241.2,398.5v4.3h-8.8v3h8v4.2h-8v3.3h8.8v4.4h-13.7v-19.2L241.2,398.5L241.2,398.5z"/>
			<path class="st0" d="M272.8,417.7l-4-11.4v11.4h-4.7v-19.2h6.1l4.2,12l4.2-12h6.1v19.2H280v-11.4l-4,11.4H272.8z"/>
			<path class="st0" d="M320.4,398.5h5.3l-7,12.4v6.8h-5v-6.8l-6.8-12.4h5.4l4,7.5L320.4,398.5z"/>
		</g>
		<g id="mischok">
			<path class="st0" d="M109.1,348.2c7.2,0,11.6,4.9,11.6,12.6v22.6h-12v-19.7c0-2.9-1.2-5-3.9-5c-2.2,0-4,1.5-4.4,3.7v21h-12v-19.7
				c0-2.9-1.2-5-3.9-5c-2.2,0-4.1,1.5-4.4,3.7v21H68V349h12v2.8c1.8-2.1,5.1-3.6,8.9-3.6c3.6-0.2,7.1,1.4,9.5,4.1
				C101.2,349.6,105.1,348,109.1,348.2z"/>
			<path class="st0" d="M132.5,346c-3.7,0-6.8-2.5-6.8-6.4s3.1-6.5,6.8-6.5s6.8,2.5,6.8,6.5S136.2,346,132.5,346z M138.5,383.4h-12
				V349h12V383.4z"/>
			<path class="st0" d="M154.2,372.8c0.6,1.9,2.4,3.2,4.4,3c2,0,3.5-0.8,3.5-2.4c0-1.3-1-1.8-2.7-2.1l-6.7-1.4
				c-5.7-1.2-9.5-4-9.5-10c0-7.4,6.6-11.6,14.7-11.6c9.4,0,14.6,4.4,15.6,11.2h-11.1c-0.4-1.5-1.5-2.8-4.2-2.8
				c-1.8,0-3.2,0.8-3.2,2.3c0,1.1,0.8,1.6,2.4,1.9l6.8,1.6c6.3,1.5,9.6,4.8,9.6,10.3c0,7.4-6.7,11.4-15.1,11.4
				c-8.8,0-15.2-4-16.2-11.4H154.2z"/>
			<path class="st0" d="M193.6,348.2c9.3,0,15,5.5,16,13.5H198c-0.3-2.2-2.2-3.7-4.4-3.6c-3.4,0-5.5,3.1-5.5,8s2.1,8,5.5,8
				c2.2,0.2,4.1-1.4,4.4-3.5h11.6c-1,8-6.7,13.5-16,13.5c-10.3,0-17.4-7.4-17.4-18S183.2,348.2,193.6,348.2z"/>
			<path class="st0" d="M212.9,333.6h12v18.3c2.4-2.5,5.8-3.8,9.3-3.8c7.7,0,12.2,5,12.2,12.6v22.6h-12v-19.7c0-2.8-1.4-4.9-4.5-4.9
				c-2.3-0.1-4.4,1.5-5,3.8v20.8h-12V333.6z"/>
			<path class="st0" d="M267.9,384.2c-10.4,0-17.6-7.4-17.6-18s7.2-18,17.6-18s17.6,7.4,17.6,18S278.4,384.2,267.9,384.2z
				 M267.9,358.1c-3.7,0-5.7,3.4-5.7,8.1s2.1,8,5.7,8s5.8-3.3,5.8-8S271.7,358.1,267.9,358.1z"/>
			<path class="st0" d="M303.7,370.6l-2.3,2.7v10.1h-12v-49.8h12V360l9.6-11h14.5l-13.1,14.3l13.5,20.1h-13.8L303.7,370.6z"/>
		</g>
	</g>
</g>
</svg>
