<?xml version="1.0" encoding="utf-8"?>
<!-- Generator: Adobe Illustrator 26.3.1, SVG Export Plug-In . SVG Version: 6.00 Build 0)  -->
<svg version="1.1" id="LOGO_L_POS" xmlns="http://www.w3.org/2000/svg" xmlns:xlink="http://www.w3.org/1999/xlink" x="0px" y="0px"
	 viewBox="0 0 1206.9 393.9" style="enable-background:new 0 0 1206.9 393.9;" xml:space="preserve">
<style type="text/css">
	.st0{fill:#1A222A;}
</style>
<g id="Signet">
	<path class="st0" d="M238.1,147.4c19.9,0,32.2,13.6,32.2,35V245H237v-54.5c0-8.1-3.4-13.8-10.8-13.8c-5.7,0-10.6,3.6-12.3,10.2V245
		h-33.1v-54.5c0-8.1-3.4-13.8-10.8-13.8c-5.7,0-10.8,3.6-12.3,10.2V245h-33.3v-95.4h33.3v7.8c4.9-5.9,14-10,24.6-10
		c12.1,0,20.6,4.7,26.3,11.4C214.3,152.9,224.1,147.4,238.1,147.4z"/>
	<path class="st0" d="M298.5,113.7h-39.9v-27h68v220.1H171.2v-27h127.3V113.7z"/>
	<path class="st0" d="M96.2,279.8h39.9v27H68V86.7h155.5v27H96.2V279.8z"/>
</g>
<g id="mischok">
	<path class="st0" d="M550.4,126.3c19.5,0,31.6,13.3,31.6,34.3v61.3h-32.6v-53.4c0-7.9-3.3-13.5-10.6-13.5c-5.6,0-10.4,3.5-12.1,10
		v57h-32.4v-53.5c0-7.9-3.3-13.5-10.6-13.5c-5.6,0-10.6,3.5-12,10v57H439v-93.6h32.6v7.7c4.8-5.8,13.7-9.8,24.1-9.8
		c11.9,0,20.2,4.6,25.8,11.2C527.2,131.7,536.7,126.3,550.4,126.3z"/>
	<path class="st0" d="M614,120.5c-10,0-18.5-6.9-18.5-17.5c0-10.8,8.5-17.7,18.5-17.7s18.5,6.9,18.5,17.7
		C632.5,113.6,624,120.5,614,120.5z M630.3,221.9h-32.6v-93.5h32.6V221.9z"/>
	<path class="st0" d="M672.8,193c1.5,5.2,6,8.1,11.8,8.1c5.4,0,9.6-2.1,9.6-6.4c0-3.5-2.7-4.8-7.3-5.8l-18.3-3.8
		c-15.6-3.3-25.8-10.8-25.8-27.2c0-20,17.9-31.6,39.9-31.6c25.6,0,39.5,11.8,42.4,30.4H695c-1-3.9-4-7.5-11.4-7.5
		c-4.8,0-8.7,2.1-8.7,6.2c0,2.9,2.1,4.4,6.4,5.2l18.5,4.4c17.1,3.9,26.2,12.9,26.2,28.1c0,20-18.1,31-41,31
		c-23.9,0-41.2-10.8-44.1-31h31.9L672.8,193L672.8,193z"/>
	<path class="st0" d="M779.8,126.3c25.2,0,40.7,15,43.4,36.8h-31.6c-0.8-5.6-5.2-9.8-11.8-9.8c-9.2,0-15,8.5-15,21.8
		s5.8,21.6,15,21.6c6.7,0,11-4,11.8-9.6h31.6c-2.7,21.6-18.3,36.8-43.4,36.8c-28.1,0-47.2-20-47.2-48.9S751.7,126.3,779.8,126.3z"/>
	<path class="st0" d="M832.1,86.8h32.6v49.7c5.2-5.8,14.3-10.2,25.2-10.2c20.8,0,33,13.5,33,34.3v61.3h-32.4v-53.4
		c0-7.7-4-13.3-12.3-13.3c-6.4,0-11.8,3.7-13.5,10.2v56.5h-32.6V86.8z"/>
	<path class="st0" d="M981.5,224c-28.3,0-47.8-20-47.8-48.9s19.5-48.8,47.8-48.8c28.5,0,47.8,20,47.8,48.8S1010,224,981.5,224z
		 M981.5,153.1c-10,0-15.6,9.1-15.6,22s5.6,21.9,15.6,21.9c10.2,0,15.8-8.9,15.8-21.8S991.7,153.1,981.5,153.1L981.5,153.1z"/>
	<path class="st0" d="M1078.6,187.2l-6.2,7.3v27.4h-32.6V86.8h32.6v71.5l26.2-29.9h39.3l-35.6,38.9l36.6,54.7h-37.4L1078.6,187.2z"
		/>
</g>
<g id="ACADEMY">
	<path class="st0" d="M472.7,254.9l19.9,52.2h-13.9L475,297h-19l-3.7,10.1h-13.5l19.9-52.2L472.7,254.9z M460.2,285.7h10.7
		l-5.4-14.7L460.2,285.7z"/>
	<path class="st0" d="M572.7,254c13,0,20.7,7.7,22.5,18.4h-13.6c-1.4-3.8-4.2-6.4-8.9-6.4c-7.2,0-11.3,6.4-11.3,15s4.1,15,11.3,15
		c4.8,0,7.6-2.5,8.9-6.5h13.6c-1.9,10.7-9.5,18.4-22.5,18.4c-14.6,0-25.1-11.1-25.1-26.9S558.1,254,572.7,254z"/>
	<path class="st0" d="M684.9,254.9l19.9,52.2H691l-3.8-10.1h-19l-3.7,10.1H651l19.9-52.2L684.9,254.9L684.9,254.9z M672.4,285.7
		h10.7l-5.4-14.7L672.4,285.7z"/>
	<path class="st0" d="M764.8,254.9h19.7c16.4,0,26.4,10.2,26.4,26.1s-10,26.1-26.4,26.1h-19.7V254.9z M783.8,295.3
		c8.7,0,13.5-5.5,13.5-14.3s-4.8-14.4-13.5-14.4h-5.6v28.6L783.8,295.3L783.8,295.3z"/>
	<path class="st0" d="M909.4,254.9v11.7h-23.9v8.2h21.8v11.5h-21.8v9h23.9v11.8h-37.3v-52.2L909.4,254.9z"/>
	<path class="st0" d="M995.3,307.1l-10.9-31v31h-12.8v-52.2h16.7l11.5,32.5l11.4-32.5h16.6v52.2H1015v-31l-10.8,31L995.3,307.1
		L995.3,307.1z"/>
	<path class="st0" d="M1124.5,254.9h14.4l-18.8,33.7v18.5h-13.7v-18.5l-18.5-33.7h14.8l11,20.4L1124.5,254.9z"/>
</g>
</svg>
