<svg xmlns="http://www.w3.org/2000/svg" viewBox="0 0 1206.88 393.91"><defs><style>.cls-1{fill:#fff;}</style></defs><g id="LOGO_L_NEG" data-name="LOGO L NEG"><g id="Signet"><path class="cls-1" d="M238.09,147.38c19.93,0,32.23,13.57,32.23,35v62.55H237V190.42c0-8.06-3.4-13.78-10.82-13.78-5.72,0-10.6,3.6-12.29,10.17v58.1H180.84V190.42c0-8.06-3.39-13.78-10.82-13.78-5.72,0-10.81,3.6-12.29,10.17v58.1H124.44V149.5h33.29v7.84c4.87-5.94,14-10,24.59-10,12.09,0,20.57,4.66,26.29,11.45C214.34,152.89,224.09,147.38,238.09,147.38Z"/><path class="cls-1" d="M298.49,113.71H258.62v-27h68.05V306.79H171.2v-27H298.49Z"/><path class="cls-1" d="M96.19,279.81h39.88v27H68V86.73H223.48v27H96.19Z"/></g><g id="mischok"><path class="cls-1" d="M550.44,126.28c19.54,0,31.6,13.3,31.6,34.29V221.9H549.4V168.47c0-7.9-3.33-13.51-10.6-13.51-5.61,0-10.4,3.54-12.06,10v57H494.31V168.47c0-7.9-3.32-13.51-10.6-13.51-5.61,0-10.6,3.54-12,10v57H439V128.35h32.64v7.7c4.78-5.82,13.71-9.77,24.11-9.77,11.85,0,20.16,4.57,25.77,11.22C527.16,131.68,536.72,126.28,550.44,126.28Z"/><path class="cls-1" d="M614.05,120.46c-10,0-18.51-6.86-18.51-17.47,0-10.8,8.53-17.66,18.51-17.66s18.5,6.86,18.5,17.66C632.55,113.6,624,120.46,614.05,120.46ZM630.26,221.9H597.62V128.35h32.64Z"/><path class="cls-1" d="M672.77,193c1.45,5.2,6,8.11,11.85,8.11,5.4,0,9.56-2.08,9.56-6.44,0-3.54-2.7-4.79-7.28-5.82l-18.29-3.75c-15.59-3.32-25.78-10.81-25.78-27.23,0-20,17.88-31.59,39.91-31.59,25.57,0,39.5,11.84,42.41,30.35H695c-1-3.95-4-7.49-11.43-7.49-4.79,0-8.73,2.08-8.73,6.24,0,2.91,2.07,4.36,6.44,5.19l18.5,4.37C716.84,168.89,726,177.83,726,193c0,20-18.08,31-41,31-23.9,0-41.16-10.81-44.07-31Z"/><path class="cls-1" d="M779.76,126.28c25.15,0,40.74,15,43.44,36.79H791.61c-.83-5.61-5.2-9.77-11.85-9.77-9.15,0-15,8.52-15,21.83s5.82,21.61,15,21.61c6.65,0,11-4,11.85-9.56H823.2c-2.7,21.62-18.29,36.8-43.44,36.8-28.06,0-47.19-20-47.19-48.85S751.7,126.28,779.76,126.28Z"/><path class="cls-1" d="M832.07,86.78h32.64v49.68c5.2-5.82,14.34-10.18,25.15-10.18,20.79,0,33,13.51,33,34.29V221.9H890.49V168.47c0-7.69-4-13.3-12.27-13.3-6.44,0-11.85,3.74-13.51,10.19V221.9H832.07Z"/><path class="cls-1" d="M981.49,224c-28.27,0-47.81-20-47.81-48.85s19.54-48.85,47.81-48.85c28.48,0,47.81,19.95,47.81,48.85S1010,224,981.49,224Zm0-70.89c-10,0-15.59,9.15-15.59,22S971.51,197,981.49,197c10.19,0,15.8-8.94,15.8-21.82S991.68,153.09,981.49,153.09Z"/><path class="cls-1" d="M1078.58,187.18l-6.23,7.28V221.9h-32.64V86.78h32.64v71.51l26.19-29.94h39.29l-35.55,38.88,36.59,54.67h-37.42Z"/></g><g id="ACADEMY"><path class="cls-1" d="M472.67,254.88l19.89,52.2H478.7L475,297H456l-3.66,10.12H438.83l19.89-52.2Zm-12.5,30.86h10.71L465.53,271Z"/><path class="cls-1" d="M572.72,254c13,0,20.65,7.74,22.52,18.36h-13.6c-1.36-3.82-4.17-6.37-8.92-6.37-7.23,0-11.31,6.37-11.31,15s4.08,15,11.31,15c4.75,0,7.56-2.55,8.92-6.46h13.6c-1.87,10.71-9.52,18.44-22.52,18.44-14.63,0-25.08-11.13-25.08-26.94S558.09,254,572.72,254Z"/><path class="cls-1" d="M684.92,254.88l19.89,52.2H691L687.22,297h-19l-3.66,10.12H651.09L671,254.88Zm-12.5,30.86h10.72L677.78,271Z"/><path class="cls-1" d="M764.82,254.88h19.72c16.41,0,26.36,10.2,26.36,26.1s-9.95,26.1-26.36,26.1H764.82Zm19,40.38c8.67,0,13.52-5.53,13.52-14.28s-4.85-14.37-13.52-14.37h-5.61v28.65Z"/><path class="cls-1" d="M909.41,254.88v11.73H885.53v8.16h21.84v11.48H885.53v9h23.88v11.82H872.1v-52.2Z"/><path class="cls-1" d="M995.35,307.08l-10.88-31v31H971.72v-52.2h16.66l11.48,32.47,11.39-32.47h16.57v52.2H1015v-31l-10.8,31Z"/><path class="cls-1" d="M1124.47,254.88h14.37L1120,288.54v18.54h-13.69V288.54l-18.53-33.66h14.79l11,20.4Z"/></g></g></svg>