<?xml version="1.0" encoding="UTF-8"?><svg id="Ebene_1" xmlns="http://www.w3.org/2000/svg" xmlns:xlink="http://www.w3.org/1999/xlink" viewBox="0 0 339.87 282.09"><defs><style>.cls-1{fill:none;}.cls-2{clip-path:url(#clippath);}.cls-3{fill:#ede6dc;}</style><clipPath id="clippath"><rect class="cls-1" width="339.87" height="282.09"/></clipPath></defs><g class="cls-2"><path class="cls-3" d="M27.48,281.92c-9.82-.71-18.86-3.78-23.99-11.88-5.14-8.13-4.15-19,.07-27.65,17.96-36.8,65.58-59.46,93.11-89.28,13.19-14.29,26.22-30.07,44.37-36.93,13.08-4.95,28.62-5.21,38.77-14.88,11.33-10.8,12.33-30.36,25.45-38.88,12.56-8.16,29.6-1.94,43.89-6.39,26.27-8.17,32.76-47.6,59.16-55.32,3.26-.95,7.08-1.24,9.74,.88,1.86,1.47,2.77,3.81,3.56,6.05,21.23,59.53,19.17,124.54,16.84,187.75-.29,7.87-.66,16.05-4.31,23.01-6.13,11.68-19.7,16.95-32.27,20.75-49.23,14.87-100.47,21.61-151.44,28.3-34.41,4.51-68.81,9.02-103.22,13.54-6.31,.83-13.2,1.4-19.75,.93"/></g></svg>